HIERARCHY
ROOT Hips
{
	OFFSET 0.000000 71.427986 0.000000
	CHANNELS 6 Xposition Yposition Zposition Xrotation Yrotation Zrotation
	JOINT Pelvis
	{
		OFFSET 0.000000 0.000000 0.000000
		CHANNELS 3 Xrotation Yrotation Zrotation
		JOINT LeftUpLeg
		{
			OFFSET 6.797100 -2.508499 -1.318700
			CHANNELS 3 Xrotation Yrotation Zrotation
			JOINT LeftLeg
			{
				OFFSET 0.069008 -29.241863 0.690200
				CHANNELS 3 Xrotation Yrotation Zrotation
				JOINT LeftFoot
				{
					OFFSET -0.069008 -29.568123 -0.266800
					CHANNELS 3 Xrotation Yrotation Zrotation
					JOINT LeftToeBase
					{
						OFFSET 3.145500 -8.631000 16.059900
						CHANNELS 3 Xrotation Yrotation Zrotation
						End Site
						{
							OFFSET 0.000000 18.501587 0.000000
						}
					}
				}
			}
			JOINT Left_ShortSleeve
			{
				OFFSET 0.265923 -10.480953 1.153800
				CHANNELS 3 Xrotation Yrotation Zrotation
				End Site
				{
					OFFSET 1.725763 19.823879 0.000000
				}
			}
		}
		JOINT RightUpLeg
		{
			OFFSET -6.797100 -2.508499 -1.318700
			CHANNELS 3 Xrotation Yrotation Zrotation
			JOINT RightLeg
			{
				OFFSET -0.082453 -29.241932 0.688000
				CHANNELS 3 Xrotation Yrotation Zrotation
				JOINT RightFoot
				{
					OFFSET 0.082453 -29.568058 -0.264600
					CHANNELS 3 Xrotation Yrotation Zrotation
					JOINT RightToeBase
					{
						OFFSET -3.115300 -8.682800 16.113400
						CHANNELS 3 Xrotation Yrotation Zrotation
						End Site
						{
							OFFSET 0.000000 18.567114 0.000000
						}
					}
				}
			}
			JOINT Right_ShortSleeve
			{
				OFFSET -0.265923 -10.480953 1.153800
				CHANNELS 3 Xrotation Yrotation Zrotation
				End Site
				{
					OFFSET -1.725766 19.823910 0.000000
				}
			}
		}
	}
	JOINT Spine
	{
		OFFSET 0.000000 13.368103 0.470500
		CHANNELS 3 Xrotation Yrotation Zrotation
		JOINT Spine1
		{
			OFFSET 0.147000 13.837402 0.538800
			CHANNELS 3 Xrotation Yrotation Zrotation
			JOINT Spine2
			{
				OFFSET 0.168000 16.242897 -1.435500
				CHANNELS 3 Xrotation Yrotation Zrotation
				JOINT Neck
				{
					OFFSET 0.217200 18.631500 -1.679100
					CHANNELS 3 Xrotation Yrotation Zrotation
					JOINT Head
					{
						OFFSET 0.000000 6.599396 1.385900
						CHANNELS 3 Xrotation Yrotation Zrotation
						JOINT Hat
						{
							OFFSET -0.532200 27.220596 -10.096100
							CHANNELS 3 Xrotation Yrotation Zrotation
							End Site
							{
								OFFSET 0.000000 22.029861 0.000000
							}
						}
						JOINT HairD
						{
							OFFSET -10.777400 17.437393 -1.325900
							CHANNELS 3 Xrotation Yrotation Zrotation
							JOINT HairD1
							{
								OFFSET -3.290299 -11.051193 1.062200
								CHANNELS 3 Xrotation Yrotation Zrotation
								End Site
								{
									OFFSET 0.000000 11.579437 0.000000
								}
							}
						}
						JOINT HairB
						{
							OFFSET -10.777400 17.437393 1.467900
							CHANNELS 3 Xrotation Yrotation Zrotation
							JOINT HairB1
							{
								OFFSET -1.561200 -12.956299 3.590200
								CHANNELS 3 Xrotation Yrotation Zrotation
								End Site
								{
									OFFSET 0.000000 13.534866 0.000000
								}
							}
						}
						JOINT HairA
						{
							OFFSET 9.713100 17.437393 1.467900
							CHANNELS 3 Xrotation Yrotation Zrotation
							JOINT HairA1
							{
								OFFSET 1.561200 -12.956299 3.590200
								CHANNELS 3 Xrotation Yrotation Zrotation
								End Site
								{
									OFFSET 0.000000 13.534866 0.000000
								}
							}
						}
						JOINT HairC
						{
							OFFSET 9.713100 17.437393 -1.325900
							CHANNELS 3 Xrotation Yrotation Zrotation
							JOINT HairC1
							{
								OFFSET 3.290300 -11.051193 1.062200
								CHANNELS 3 Xrotation Yrotation Zrotation
								End Site
								{
									OFFSET 0.000000 11.579437 0.000000
								}
							}
						}
					}
				}
				JOINT LeftShoulder
				{
					OFFSET 5.101800 15.108002 -2.763700
					CHANNELS 3 Xrotation Yrotation Zrotation
					JOINT LeftArm
					{
						OFFSET 9.825497 2.506317 -1.597400
						CHANNELS 3 Xrotation Yrotation Zrotation
						JOINT LeftForeArm
						{
							OFFSET 21.966244 0.000000 0.000000
							CHANNELS 3 Xrotation Yrotation Zrotation
							JOINT LeftHand
							{
								OFFSET 33.879036 0.000000 0.000000
								CHANNELS 3 Xrotation Yrotation Zrotation
								JOINT LeftHandThumb1
								{
									OFFSET 6.715286 -2.359680 3.363841
									CHANNELS 3 Xrotation Yrotation Zrotation
									JOINT LeftHandThumb2
									{
										OFFSET 2.507072 -1.447464 1.447461
										CHANNELS 3 Xrotation Yrotation Zrotation
										JOINT LeftHandThumb3
										{
											OFFSET 2.898338 -1.673355 1.673357
											CHANNELS 3 Xrotation Yrotation Zrotation
											End Site
											{
												OFFSET -0.295959 3.727692 -0.131651
											}
										}
									}
								}
								JOINT LeftHandIndex1
								{
									OFFSET 14.190811 -0.254547 3.840278
									CHANNELS 3 Xrotation Yrotation Zrotation
									JOINT LeftHandIndex2
									{
										OFFSET 3.551727 0.000000 -0.000000
										CHANNELS 3 Xrotation Yrotation Zrotation
										JOINT LeftHandIndex3
										{
											OFFSET 2.894196 0.000000 0.000000
											CHANNELS 3 Xrotation Yrotation Zrotation
											End Site
											{
												OFFSET -1.000603 2.690872 0.366626
											}
										}
									}
								}
								JOINT LeftHandMiddle1
								{
									OFFSET 13.776489 0.000000 0.000000
									CHANNELS 3 Xrotation Yrotation Zrotation
									JOINT LeftHandMiddle2
									{
										OFFSET 3.438232 0.000000 0.000000
										CHANNELS 3 Xrotation Yrotation Zrotation
										JOINT LeftHandMiddle3
										{
											OFFSET 3.691551 0.000000 0.000000
											CHANNELS 3 Xrotation Yrotation Zrotation
											End Site
											{
												OFFSET -1.082298 3.499527 0.457670
											}
										}
									}
								}
								JOINT LeftHandRing1
								{
									OFFSET 13.966164 -0.268127 -3.067488
									CHANNELS 3 Xrotation Yrotation Zrotation
									JOINT LeftHandRing2
									{
										OFFSET 3.162567 0.000000 0.000000
										CHANNELS 3 Xrotation Yrotation Zrotation
										JOINT LeftHandRing3
										{
											OFFSET 3.324348 0.000000 0.000000
											CHANNELS 3 Xrotation Yrotation Zrotation
											End Site
											{
												OFFSET -0.861900 3.184998 0.405154
											}
										}
									}
								}
								JOINT LeftHandPinky1
								{
									OFFSET 13.131393 -0.168503 -5.746925
									CHANNELS 3 Xrotation Yrotation Zrotation
									JOINT LeftHandPinky2
									{
										OFFSET 2.849182 0.000000 0.000000
										CHANNELS 3 Xrotation Yrotation Zrotation
										JOINT LeftHandPinky3
										{
											OFFSET 2.805038 0.000000 0.000000
											CHANNELS 3 Xrotation Yrotation Zrotation
											End Site
											{
												OFFSET -0.882500 2.642609 0.325652
											}
										}
									}
								}
							}
							JOINT Left_Sleeve
							{
								OFFSET 6.592125 -0.646545 0.805568
								CHANNELS 3 Xrotation Yrotation Zrotation
								End Site
								{
									OFFSET -0.000179 20.275787 -0.000000
								}
							}
						}
					}
				}
				JOINT RightShoulder
				{
					OFFSET -5.731700 15.108002 -2.763700
					CHANNELS 3 Xrotation Yrotation Zrotation
					JOINT RightArm
					{
						OFFSET -9.825497 2.506317 -1.597400
						CHANNELS 3 Xrotation Yrotation Zrotation
						JOINT RightForeArm
						{
							OFFSET -21.966242 0.000000 0.000000
							CHANNELS 3 Xrotation Yrotation Zrotation
							JOINT RightHand
							{
								OFFSET -33.879032 0.000000 0.000000
								CHANNELS 3 Xrotation Yrotation Zrotation
								JOINT RightHandThumb1
								{
									OFFSET -6.715286 -2.359680 3.363841
									CHANNELS 3 Xrotation Yrotation Zrotation
									JOINT RightHandThumb2
									{
										OFFSET -2.507072 -1.447464 1.447461
										CHANNELS 3 Xrotation Yrotation Zrotation
										JOINT RightHandThumb3
										{
											OFFSET -2.898338 -1.673355 1.673357
											CHANNELS 3 Xrotation Yrotation Zrotation
											End Site
											{
												OFFSET 0.295959 3.727692 -0.131651
											}
										}
									}
								}
								JOINT RightHandIndex1
								{
									OFFSET -14.190811 -0.254547 3.840278
									CHANNELS 3 Xrotation Yrotation Zrotation
									JOINT RightHandIndex2
									{
										OFFSET -3.551727 0.000000 -0.000000
										CHANNELS 3 Xrotation Yrotation Zrotation
										JOINT RightHandIndex3
										{
											OFFSET -2.894196 0.000000 0.000000
											CHANNELS 3 Xrotation Yrotation Zrotation
											End Site
											{
												OFFSET 1.000603 2.690872 0.366626
											}
										}
									}
								}
								JOINT RightHandMiddle1
								{
									OFFSET -13.776489 0.000000 0.000000
									CHANNELS 3 Xrotation Yrotation Zrotation
									JOINT RightHandMiddle2
									{
										OFFSET -3.438232 0.000000 0.000000
										CHANNELS 3 Xrotation Yrotation Zrotation
										JOINT RightHandMiddle3
										{
											OFFSET -3.691551 0.000000 0.000000
											CHANNELS 3 Xrotation Yrotation Zrotation
											End Site
											{
												OFFSET 1.082298 3.499527 0.457670
											}
										}
									}
								}
								JOINT RightHandRing1
								{
									OFFSET -13.966164 -0.268127 -3.067488
									CHANNELS 3 Xrotation Yrotation Zrotation
									JOINT RightHandRing2
									{
										OFFSET -3.162567 0.000000 0.000000
										CHANNELS 3 Xrotation Yrotation Zrotation
										JOINT RightHandRing3
										{
											OFFSET -3.324348 0.000000 0.000000
											CHANNELS 3 Xrotation Yrotation Zrotation
											End Site
											{
												OFFSET 0.861900 3.184998 0.405154
											}
										}
									}
								}
								JOINT RightHandPinky1
								{
									OFFSET -13.131393 -0.168503 -5.746925
									CHANNELS 3 Xrotation Yrotation Zrotation
									JOINT RightHandPinky2
									{
										OFFSET -2.849182 0.000000 0.000000
										CHANNELS 3 Xrotation Yrotation Zrotation
										JOINT RightHandPinky3
										{
											OFFSET -2.805038 0.000000 0.000000
											CHANNELS 3 Xrotation Yrotation Zrotation
											End Site
											{
												OFFSET 0.882500 2.642609 0.325652
											}
										}
									}
								}
							}
							JOINT Right_Sleeve
							{
								OFFSET -6.592125 -0.646545 0.805568
								CHANNELS 3 Xrotation Yrotation Zrotation
								End Site
								{
									OFFSET 0.000179 20.275787 -0.000000
								}
							}
						}
					}
				}
				JOINT Bind_Right_JacketString
				{
					OFFSET -3.534800 11.969597 7.200700
					CHANNELS 3 Xrotation Yrotation Zrotation
					JOINT Bind_Right_JacketString1
					{
						OFFSET -0.319900 -6.102600 2.794100
						CHANNELS 3 Xrotation Yrotation Zrotation
						End Site
						{
							OFFSET 0.000000 6.719452 0.000000
						}
					}
				}
				JOINT Bind_Left_JacketString
				{
					OFFSET 2.904800 11.969597 7.200700
					CHANNELS 3 Xrotation Yrotation Zrotation
					JOINT Bind_Left_JacketString1
					{
						OFFSET 0.364800 -5.904503 3.186800
						CHANNELS 3 Xrotation Yrotation Zrotation
						End Site
						{
							OFFSET 0.000000 6.719513 0.000000
						}
					}
				}
				JOINT HairE
				{
					OFFSET 5.915200 17.612701 -11.592200
					CHANNELS 3 Xrotation Yrotation Zrotation
					JOINT HairE1
					{
						OFFSET 0.289200 -7.171898 -1.284500
						CHANNELS 3 Xrotation Yrotation Zrotation
						End Site
						{
							OFFSET 0.000000 7.291756 0.000000
						}
					}
				}
				JOINT HairF
				{
					OFFSET -0.864800 17.612701 -11.592200
					CHANNELS 3 Xrotation Yrotation Zrotation
					JOINT HairF1
					{
						OFFSET 0.000000 -14.087097 -2.127501
						CHANNELS 3 Xrotation Yrotation Zrotation
						End Site
						{
							OFFSET 0.000000 14.246841 0.000000
						}
					}
				}
				JOINT HairG
				{
					OFFSET -8.087700 17.612701 -11.592200
					CHANNELS 3 Xrotation Yrotation Zrotation
					JOINT HairG1
					{
						OFFSET -0.293600 -6.081398 -0.910100
						CHANNELS 3 Xrotation Yrotation Zrotation
						End Site
						{
							OFFSET 0.000000 6.156120 0.000000
						}
					}
				}
			}
		}
	}
	JOINT Pouch
	{
		OFFSET 0.000000 4.394501 10.847300
		CHANNELS 3 Xrotation Yrotation Zrotation
		End Site
		{
			OFFSET 0.000000 21.880577 0.000000
		}
	}
	JOINT Bag
	{
		OFFSET -13.229000 4.813004 -0.593300
		CHANNELS 3 Xrotation Yrotation Zrotation
		End Site
		{
			OFFSET 0.000000 21.880577 0.000000
		}
	}
	JOINT OccupyGuyFacialAnim_Joint
	{
		OFFSET 1.000000 -70.206398 -1.655000
		CHANNELS 3 Xrotation Yrotation Zrotation
		End Site
		{
			OFFSET 0.000000 21.880577 0.000000
		}
	}
}
MOTION
Frames: 5
Frame Time: 0.016667
8.520393 63.749245 -6.596035 55.112581 -7.084274 4.231642 -0.000000 -0.000000 0.000001 -85.514651 -5.477942 5.195501 49.740904 10.066142 -4.416335 -16.535791 13.733054 -2.427083 0.000000 0.000000 0.000000 -0.000003 0.000000 0.000000 -59.755911 6.351415 -5.807029 64.998723 2.465336 -4.950534 -3.677442 -3.159099 5.452071 0.000002 -0.000000 -0.000000 0.000000 0.000000 -0.000000 6.430461 0.544257 -0.631001 15.063526 1.404745 -0.847227 25.668447 1.557015 -0.177842 -24.368129 -0.913412 3.954656 -18.158085 5.659349 -4.296262 0.000001 0.000000 -0.000000 0.000001 0.000000 -0.000000 0.000001 0.000000 0.000000 0.000001 0.000000 -0.000000 0.000001 0.000000 -0.000000 0.000001 0.000000 -0.000000 0.000001 0.000000 -0.000000 0.000001 0.000000 -0.000000 0.000001 0.000000 -0.000000 3.359798 -11.332867 0.850121 -25.850603 -35.679720 -27.707658 -0.000005 -43.985264 0.000005 -8.602283 -8.370890 31.241183 0.699765 -6.020116 19.223936 19.074673 26.512435 -1.026354 0.000001 -0.000001 -0.000003 0.483447 4.482292 -23.673239 0.882574 3.094026 -31.835088 -0.000000 0.000000 -0.000004 2.472069 8.725190 -25.286107 1.505501 3.921819 -41.988813 0.000001 0.000001 0.000001 3.074523 8.498773 -34.787615 1.107464 3.429290 -35.785950 -0.000002 -0.000000 -0.000003 3.603269 12.761730 -45.581274 0.673750 2.729594 -27.725823 -0.000000 0.000001 -0.000001 -0.000002 0.000000 0.000001 0.611284 31.893630 8.610638 -33.996816 35.443754 11.882221 -0.000004 24.919383 -0.000004 0.648388 -4.749856 3.169670 -0.201457 3.035681 -7.196440 8.074851 6.487002 -14.042704 -0.000000 -0.000001 0.000001 -3.681005 8.703993 18.305344 -0.000006 0.000009 0.000061 -0.000004 0.000000 -0.000001 -0.122566 9.697892 1.310636 0.695571 -2.450418 31.689831 0.000002 -0.000001 0.000003 -0.568129 7.106776 4.105414 0.435102 -1.967351 24.939883 -0.000001 0.000002 -0.000003 -8.414108 -1.159767 -7.809532 0.946335 -2.816016 37.143658 -0.000001 0.000001 0.000001 -0.000004 -0.000000 0.000000 -0.000001 0.000000 0.000000 -0.000001 -0.000000 0.000000 -0.000001 0.000000 0.000000 -0.000001 0.000000 0.000000 -0.000001 0.000000 0.000000 -0.000001 -0.000000 0.000000 -0.000001 0.000000 0.000000 -0.000001 0.000000 0.000000 -0.000001 0.000000 0.000000 -0.000001 -0.000000 0.000000 -0.000000 -0.000000 0.000001 -0.000000 -0.000000 0.000001 -0.000000 -0.000000 0.000001 
8.484509 64.258926 -6.449139 53.801168 -7.544610 4.152910 -0.000001 0.000000 -0.000001 -82.984585 -5.354747 5.585695 47.951818 10.086353 -4.412859 -15.924221 13.868898 -2.335392 0.000000 0.000000 0.000000 0.000003 -0.000000 0.000000 -61.446465 6.417481 -5.714612 65.808155 1.651648 -4.665072 -5.101666 -3.155113 5.310122 -0.000002 0.000001 0.000000 0.000001 0.000000 -0.000000 6.385765 0.501912 -0.591431 14.959065 1.376008 -0.738083 25.530279 1.548437 -0.069472 -24.070889 -0.806832 3.898659 -17.895410 6.094574 -4.244754 0.000003 0.000000 -0.000000 0.000003 0.000000 -0.000000 0.000003 0.000000 -0.000000 0.000003 0.000000 -0.000000 0.000003 -0.000000 -0.000000 0.000003 0.000000 -0.000000 0.000003 -0.000000 -0.000000 0.000003 0.000000 -0.000000 0.000003 0.000000 -0.000000 3.327521 -11.257729 0.298061 -24.534524 -35.097310 -28.877978 -0.000030 -43.052772 -0.000020 -8.186006 -8.336846 30.259036 0.699762 -6.020108 19.223955 19.074664 26.512417 -1.026335 -0.000000 -0.000002 -0.000005 0.483166 4.482403 -23.673087 0.882598 3.094055 -31.835211 0.000001 0.000001 -0.000003 2.472258 8.725282 -25.287802 1.505398 3.921676 -41.987133 0.000000 -0.000000 0.000004 3.074717 8.498839 -34.789589 1.107349 3.429153 -35.783989 -0.000001 0.000000 -0.000001 3.603262 12.761718 -45.581264 0.673749 2.729608 -27.725804 -0.000004 -0.000001 -0.000001 -0.000001 0.000000 0.000000 0.454101 31.771882 9.248693 -33.054796 34.716871 13.054990 0.000013 24.898748 -0.000017 0.795427 -4.377387 5.700455 -0.201472 3.035681 -7.196431 8.074862 6.487005 -14.042723 -0.000000 0.000000 -0.000000 -3.680997 8.703991 18.305337 0.000001 -0.000000 0.000005 -0.000006 0.000002 0.000001 -0.122548 9.697888 1.310560 0.695584 -2.450405 31.689909 0.000003 -0.000002 -0.000001 -0.568099 7.106794 4.105295 0.435103 -1.967349 24.940019 -0.000000 0.000001 -0.000004 -8.414084 -1.159777 -7.809527 0.946309 -2.816025 37.143655 0.000002 -0.000001 0.000000 -0.000001 0.000000 0.000000 -0.000000 0.000000 0.000000 0.000001 -0.000000 0.000000 -0.000000 0.000000 0.000000 -0.000000 0.000000 0.000000 -0.000000 0.000000 0.000000 0.000001 -0.000000 0.000000 -0.000000 0.000000 0.000000 -0.000000 0.000000 0.000000 -0.000000 0.000000 0.000000 0.000001 -0.000000 0.000000 -0.000001 0.000000 -0.000001 -0.000001 0.000000 -0.000001 -0.000001 0.000000 -0.000001 
8.440474 64.752121 -6.290367 52.461314 -8.030154 4.049793 0.000001 0.000001 -0.000000 -80.432786 -5.194673 6.019080 46.193509 10.064994 -4.420066 -15.341068 14.011799 -2.238347 0.000000 0.000001 -0.000000 -0.000002 0.000001 0.000000 -62.818349 6.280694 -5.696861 65.844574 0.297543 -4.369371 -6.476527 -3.129561 4.979569 -0.000000 0.000000 -0.000000 -0.000001 0.000000 -0.000000 6.345245 0.468881 -0.532370 14.862678 1.352665 -0.606153 25.397850 1.548555 0.060528 -23.787353 -0.699828 3.812282 -17.607289 6.465521 -4.232234 0.000001 0.000000 -0.000000 0.000001 0.000000 -0.000000 0.000001 0.000000 -0.000000 0.000001 0.000000 -0.000000 0.000002 -0.000000 -0.000000 0.000001 0.000000 -0.000000 0.000002 -0.000000 -0.000000 0.000001 0.000000 -0.000000 0.000001 0.000000 -0.000000 3.282058 -11.154454 -0.322864 -23.304172 -34.650144 -30.083329 -0.000008 -41.915911 -0.000016 -7.881260 -8.386933 29.199714 0.699764 -6.020127 19.223929 19.074659 26.512431 -1.026359 -0.000001 0.000001 -0.000003 0.482888 4.482505 -23.672980 0.882600 3.094067 -31.835293 0.000000 0.000001 -0.000002 2.472445 8.725390 -25.289508 1.505282 3.921531 -41.985443 0.000001 0.000001 0.000001 3.074910 8.498928 -34.791515 1.107238 3.428992 -35.782022 -0.000000 -0.000000 -0.000002 3.603275 12.761718 -45.581267 0.673760 2.729595 -27.725814 -0.000003 0.000000 0.000001 -0.000001 0.000000 -0.000001 0.383110 31.571569 9.612380 -32.161899 33.923688 14.344966 0.000002 24.743668 0.000005 0.798860 -3.969767 7.957807 -0.201442 3.035677 -7.196452 8.074852 6.487002 -14.042712 -0.000003 -0.000001 0.000002 -3.680983 8.703988 18.305330 0.000003 0.000013 0.000011 -0.000006 0.000002 0.000001 -0.122517 9.697897 1.310510 0.695570 -2.450422 31.689954 0.000004 -0.000001 -0.000006 -0.568063 7.106798 4.105126 0.435106 -1.967370 24.940185 0.000001 -0.000002 -0.000005 -8.414084 -1.159775 -7.809556 0.946314 -2.816009 37.143658 -0.000002 0.000002 -0.000003 -0.000001 0.000000 0.000000 -0.000001 0.000000 -0.000000 -0.000001 0.000000 0.000000 -0.000001 0.000000 -0.000000 -0.000001 0.000000 -0.000000 -0.000001 0.000000 -0.000000 -0.000001 0.000000 -0.000000 -0.000001 0.000000 -0.000000 -0.000001 0.000000 -0.000000 -0.000001 0.000000 -0.000000 -0.000001 0.000000 -0.000000 0.000001 0.000001 -0.000000 0.000001 0.000001 -0.000000 0.000001 0.000001 -0.000000 
8.385139 65.230873 -6.122879 51.135782 -8.531341 3.900102 0.000004 -0.000000 -0.000000 -77.902126 -5.013575 6.497258 44.453702 10.042730 -4.429175 -14.769502 14.116501 -2.152071 0.000000 -0.000003 0.000000 -0.000001 -0.000000 -0.000000 -63.897246 5.938012 -5.715328 65.181451 -1.262204 -4.055604 -7.793351 -3.076574 4.466699 -0.000003 -0.000000 0.000001 0.000000 0.000000 -0.000000 6.297957 0.448148 -0.458340 14.751836 1.342869 -0.457022 25.248578 1.564634 0.205128 -23.519845 -0.601491 3.713255 -17.310539 6.769745 -4.222797 -0.000001 0.000000 0.000000 -0.000001 0.000000 0.000000 -0.000001 0.000000 0.000000 -0.000001 0.000000 0.000000 0.000001 0.000000 -0.000000 -0.000001 0.000000 0.000000 0.000001 0.000000 -0.000000 -0.000001 0.000000 0.000000 -0.000001 0.000000 0.000000 3.231795 -11.021963 -0.952625 -22.238234 -34.231542 -31.346638 0.000002 -40.754537 -0.000010 -7.654841 -8.345729 28.070063 0.699769 -6.020114 19.223933 19.074659 26.512424 -1.026330 0.000001 -0.000000 -0.000007 0.482594 4.482614 -23.672819 0.882605 3.094074 -31.835437 0.000004 -0.000001 0.000002 2.472630 8.725475 -25.291227 1.505160 3.921402 -41.983725 -0.000000 -0.000002 0.000002 3.075113 8.499020 -34.793445 1.107127 3.428821 -35.780062 -0.000000 0.000004 0.000001 3.603263 12.761710 -45.581291 0.673765 2.729615 -27.725809 0.000000 -0.000003 0.000002 -0.000002 0.000000 0.000001 0.372564 31.286405 9.795021 -31.370560 33.055134 15.760117 -0.000014 24.457931 0.000010 0.679505 -3.567368 9.936552 -0.201451 3.035680 -7.196448 8.074866 6.487007 -14.042707 0.000000 -0.000001 -0.000001 -3.680983 8.703995 18.305346 -0.000007 0.000003 0.000025 0.000001 -0.000000 0.000002 -0.122509 9.697897 1.310461 0.695585 -2.450437 31.690005 0.000001 0.000000 -0.000004 -0.568031 7.106811 4.104986 0.435114 -1.967380 24.940316 0.000004 0.000000 -0.000002 -8.414090 -1.159776 -7.809546 0.946334 -2.816009 37.143668 -0.000000 -0.000001 0.000000 -0.000002 -0.000000 0.000000 -0.000000 0.000000 -0.000000 -0.000000 -0.000000 -0.000001 -0.000000 0.000000 -0.000000 -0.000000 0.000000 -0.000000 -0.000000 0.000000 -0.000000 -0.000000 -0.000000 -0.000000 -0.000000 0.000000 -0.000000 -0.000000 0.000000 -0.000000 -0.000000 0.000000 -0.000000 -0.000000 -0.000000 -0.000000 0.000004 -0.000000 -0.000000 0.000004 -0.000000 -0.000000 0.000004 -0.000000 -0.000000 
8.314872 65.691902 -5.948868 49.865060 -9.030330 3.694211 0.000002 0.000001 -0.000001 -75.443237 -4.834404 7.002342 42.736412 10.021051 -4.419034 -14.199678 14.196834 -2.096692 0.000000 0.000001 0.000000 -0.000000 -0.000001 -0.000000 -64.701494 5.433053 -5.754501 63.878128 -2.492340 -3.716235 -8.960062 -3.012351 3.963356 -0.000001 0.000001 0.000001 0.000000 0.000000 -0.000001 6.230423 0.437310 -0.378393 14.598348 1.342922 -0.303597 25.054394 1.591056 0.352063 -23.262077 -0.523337 3.642464 -17.013868 7.039136 -4.179064 -0.000002 0.000000 -0.000000 -0.000002 0.000000 -0.000000 -0.000002 0.000000 -0.000000 -0.000002 0.000000 -0.000000 -0.000000 0.000000 -0.000000 -0.000002 0.000000 -0.000000 -0.000000 0.000000 -0.000000 -0.000002 0.000000 -0.000000 -0.000002 0.000000 -0.000000 3.185965 -10.858430 -1.510804 -21.370321 -33.790384 -32.751314 -0.000012 -39.584351 -0.000006 -7.431444 -8.192846 26.988651 0.699757 -6.020129 19.223938 19.074657 26.512435 -1.026331 0.000003 0.000001 -0.000004 0.482308 4.482708 -23.672722 0.882613 3.094096 -31.835529 0.000002 0.000001 -0.000000 2.472817 8.725535 -25.292949 1.505043 3.921299 -41.982024 0.000003 0.000000 0.000001 3.075310 8.499075 -34.795429 1.106989 3.428663 -35.778085 -0.000003 -0.000001 -0.000004 3.603254 12.761705 -45.581302 0.673759 2.729607 -27.725818 -0.000004 0.000001 0.000003 0.000001 -0.000000 0.000000 0.370541 30.945924 9.971298 -30.635625 32.079940 17.167373 0.000000 24.089845 0.000017 0.446898 -3.220471 11.623269 -0.201459 3.035675 -7.196429 8.074870 6.487005 -14.042726 -0.000001 -0.000001 -0.000000 -3.681007 8.703990 18.305334 0.000007 0.000012 0.000032 -0.000001 0.000002 0.000001 -0.122511 9.697906 1.310411 0.695588 -2.450438 31.690049 0.000002 -0.000003 -0.000001 -0.568018 7.106807 4.104853 0.435121 -1.967376 24.940473 0.000002 -0.000001 -0.000004 -8.414089 -1.159787 -7.809549 0.946316 -2.816011 37.143675 0.000003 0.000000 0.000004 0.000005 0.000000 0.000000 -0.000001 0.000000 0.000000 -0.000001 0.000000 -0.000000 -0.000001 0.000000 0.000000 -0.000001 0.000000 0.000000 -0.000001 0.000000 0.000000 -0.000001 0.000000 0.000000 -0.000001 0.000000 0.000000 -0.000001 0.000000 0.000000 -0.000001 0.000000 0.000000 -0.000001 0.000000 0.000000 0.000002 0.000001 -0.000001 0.000002 0.000001 -0.000001 0.000002 0.000001 -0.000001 
